<?xml version="1.0" encoding="UTF-8"?><svg id="a" xmlns="http://www.w3.org/2000/svg" viewBox="0 0 124.3 91.9"><rect width="124.3" height="91" rx="10" ry="10" style="fill:#d1d3d4;"/><path d="m0,21.7h124.3v60.1c0,5.5-4.5,10-10,10H10c-5.5,0-10-4.5-10-10V21.7h0Z" style="fill:#231f20;"/><rect x="7.9" y="51.3" width="49.9" height="5.9" rx="3" ry="3" transform="translate(87.1 21.3) rotate(90)" style="fill:#d1d3d4;"/><path d="m43.4,51.3l-12.7-16.5c-1.1-1.4-.9-3.5.3-4.7h0c1.2-1.2,3.1-1.1,4.2.3l12.7,16.5c1.1,1.4.9,3.5-.3,4.7h0c-1.2,1.2-3.1,1.1-4.2-.3Z" style="fill:#d1d3d4;"/><rect x="33.6" y="51.2" width="49.9" height="5.9" rx="3" ry="3" transform="translate(112.7 -4.4) rotate(90)" style="fill:#d1d3d4;"/><path d="m47.8,51.3l12.7-16.5c1.1-1.4.9-3.5-.3-4.7h0c-1.2-1.2-3.1-1.1-4.2.3l-12.7,16.5c-1.1,1.4-.9,3.5.3,4.7h0c1.2,1.2,3.1,1.1,4.2-.3Z" style="fill:#d1d3d4;"/><rect x="47.2" y="50.8" width="49.9" height="6.7" rx="3.3" ry="3.3" transform="translate(126.3 -18) rotate(90)" style="fill:#d1d3d4;"/><rect x="63.9" y="61.4" width="35.2" height="6.7" rx="3.3" ry="3.3" transform="translate(76.8 -39.2) rotate(49)" style="fill:#d1d3d4;"/><rect x="63.9" y="40.9" width="35.4" height="6.7" rx="3.3" ry="3.3" transform="translate(-5.4 76.7) rotate(-49)" style="fill:#d1d3d4;"/></svg>